<svg width="70" height="70" viewBox="0 0 70 70" fill="none" xmlns="http://www.w3.org/2000/svg">
<path d="M17.0624 49.875C19.5416 47.9791 22.3124 46.4844 25.3749 45.3906C28.4374 44.2969 31.6458 43.75 34.9999 43.75C38.3541 43.75 41.5624 44.2969 44.6249 45.3906C47.6874 46.4844 50.4582 47.9791 52.9374 49.875C54.6388 47.8819 55.9635 45.6215 56.9114 43.0937C57.8593 40.566 58.3332 37.868 58.3332 35C58.3332 28.5347 56.0607 23.0295 51.5155 18.4844C46.9704 13.9392 41.4652 11.6666 34.9999 11.6666C28.5346 11.6666 23.0294 13.9392 18.4843 18.4844C13.9392 23.0295 11.6666 28.5347 11.6666 35C11.6666 37.868 12.1405 40.566 13.0885 43.0937C14.0364 45.6215 15.361 47.8819 17.0624 49.875ZM34.9999 37.9166C32.1319 37.9166 29.7135 36.9323 27.7447 34.9635C25.776 32.9948 24.7916 30.5764 24.7916 27.7083C24.7916 24.8403 25.776 22.4219 27.7447 20.4531C29.7135 18.4844 32.1319 17.5 34.9999 17.5C37.868 17.5 40.2864 18.4844 42.2551 20.4531C44.2239 22.4219 45.2082 24.8403 45.2082 27.7083C45.2082 30.5764 44.2239 32.9948 42.2551 34.9635C40.2864 36.9323 37.868 37.9166 34.9999 37.9166ZM34.9999 64.1666C30.9652 64.1666 27.1735 63.401 23.6249 61.8698C20.0763 60.3385 16.9895 58.2604 14.3645 55.6354C11.7395 53.0104 9.66138 49.9236 8.13013 46.375C6.59888 42.8264 5.83325 39.0347 5.83325 35C5.83325 30.9653 6.59888 27.1736 8.13013 23.625C9.66138 20.0764 11.7395 16.9896 14.3645 14.3646C16.9895 11.7396 20.0763 9.66144 23.6249 8.13019C27.1735 6.59894 30.9652 5.83331 34.9999 5.83331C39.0346 5.83331 42.8263 6.59894 46.3749 8.13019C49.9235 9.66144 53.0103 11.7396 55.6353 14.3646C58.2603 16.9896 60.3385 20.0764 61.8697 23.625C63.401 27.1736 64.1666 30.9653 64.1666 35C64.1666 39.0347 63.401 42.8264 61.8697 46.375C60.3385 49.9236 58.2603 53.0104 55.6353 55.6354C53.0103 58.2604 49.9235 60.3385 46.3749 61.8698C42.8263 63.401 39.0346 64.1666 34.9999 64.1666Z" fill="#1D1B20"/>
</svg>
