<svg width="65" height="59" viewBox="0 0 65 59" fill="none" xmlns="http://www.w3.org/2000/svg">
<path d="M2.70825 2.45831H13.5416L20.7999 35.3754C21.0476 36.5072 21.7259 37.5239 22.7162 38.2475C23.7065 38.971 24.9456 39.3554 26.2166 39.3333H52.5416C53.8126 39.3554 55.0517 38.971 56.042 38.2475C57.0323 37.5239 57.7106 36.5072 57.9582 35.3754L62.2916 14.75H16.2499M27.0833 51.625C27.0833 52.9827 25.8707 54.0833 24.3749 54.0833C22.8791 54.0833 21.6666 52.9827 21.6666 51.625C21.6666 50.2673 22.8791 49.1666 24.3749 49.1666C25.8707 49.1666 27.0833 50.2673 27.0833 51.625ZM56.8749 51.625C56.8749 52.9827 55.6624 54.0833 54.1666 54.0833C52.6708 54.0833 51.4583 52.9827 51.4583 51.625C51.4583 50.2673 52.6708 49.1666 54.1666 49.1666C55.6624 49.1666 56.8749 50.2673 56.8749 51.625Z" stroke="#1E1E1E" stroke-width="4" stroke-linecap="round" stroke-linejoin="round"/>
</svg>
